<svg xmlns="http://www.w3.org/2000/svg" viewBox="0 0 1920.35 1080.35"><defs><style>.cls-1{fill:#a6e3ff;}.cls-2{fill:#fff;}.cls-3{fill:#e5b307;}.cls-4{fill:#ffc70a;}.cls-5{fill:#ffd100;}.cls-6{fill:#e8b306;}.cls-7{fill:#e8b30c;}.cls-8{fill:#e3af00;}.cls-9{fill:#e6b405;}</style></defs><g id="레이어_2" data-name="레이어 2"><g id="레이어_3" data-name="레이어 3"><rect class="cls-1" width="1920" height="1080"/><path class="cls-2" d="M522,731H694.45S691,713,675,712c-.32,0-21-33-49-17,0,0-34-27-63,8C563,703,539,697,522,731Z"/><path class="cls-2" d="M1035,748s7-22,28-17c0,0,13-27,43-8,0,0,17.23-10.77,32.61,9.11.39-.11,14.32,2.89,16.85,15.89Z"/><path class="cls-2" d="M1647,745s9-27,38-25c0,0,17-33,51-7,0,0,28-13,44,14,0,0,14.2,2,16.6,18Z"/></g><g id="레이어_2-2" data-name="레이어 2"><polygon class="cls-3" points="0 840.77 40.34 840.77 1920 840.77 1920.35 1080.35 0 1080.35 0 840.77"/><polygon class="cls-4" points="0 857.39 1920 856.73 1920.35 1080.35 0 1080.35 0 857.39"/><polygon class="cls-5" points="0 894.64 1920 895.97 1920.35 1080.35 0 1080.35 0 894.64"/><path class="cls-3" d="M40.34,840.77H51.81S52,798,52,793s-11.66-5-11.66,0v26.82H37.88c-.7,0-1.76-.13-1.88-.82-.23-1.33,0-4.43,0-10-2-3-4,0-4,0v13.22a2.46,2.46,0,0,0,.66,1.69A3.21,3.21,0,0,0,35,825h5"/><path class="cls-3" d="M229.89,840.77C223.78,791.54,167,789,167,789c10-8-6-11-6-11,10,0,7-7,7-7s-12-4-22-1-1,7-1,7c-18,0-15,9-13,10s10,2,7,1-5,2-5,3,4,2,4,2c-36,0-49.44,47.77-49.44,47.77Z"/><path class="cls-4" d="M249,857s29-42,57,0C306.42,857.23,249,857,249,857Z"/><path class="cls-4" d="M312,857l1.19-35H293.41s-4.41,0-4.41-9V775.76s6.11-10.25,11.06,0c-.06.24,1,34.58,1,34.58H310s4,.66,4-5.34V762s14-22,30,0v61.14s0,2.86,5,2.86,5-3,5-3V777s7-11,15,0v56s0,6-6,6H344v18Z"/><path class="cls-3" d="M499,840.77s24-40.23,59,0C558,841,499,840.77,499,840.77Z"/><path class="cls-4" d="M573,859s19-50,74-50,72.56,50,72.56,50Z"/><path class="cls-4" d="M802,858V825.14L777,825V758.8s1-4.8,8-4.8,8,4,8,4v48s-1,4,3,4,5.36,0,5.36-4V722S806,710,819,710a20.18,20.18,0,0,1,18,11v69s0,4,4,4,5-1,5-4V763s1-3,6-3,5,2,5,2v44H836.78v52Z"/><path class="cls-6" d="M981,842s-4-16-25-16-23.45,16-23.45,16Z"/><path class="cls-4" d="M891.31,858S900,828,935,828s38.78,30,38.78,30Z"/><path class="cls-6" d="M1013.69,842s2.31-34,45.31-34,45.47,34,45.47,34Z"/><path class="cls-7" d="M1151.92,842v-8.33h-12.31V802.86A4.32,4.32,0,0,1,1144,799c4,0,4,4,4,4v23h3V786s1-5,8-5,7,4,7,4v33.38h5V806.07s-1-3.07,3-3.07,3,3,3,3v17h-11v19Z"/><path class="cls-4" d="M1197,857s17-43,64-43,61,43,61,43Z"/><path class="cls-4" d="M1350.55,857V765.72S1352,757,1362,757s12,8,12,8l1,53h9V797.09s0-3.09,3-3.09a2.94,2.94,0,0,1,3,3v29h-15v31Z"/><path class="cls-8" d="M1406,842s14-45,65-45,57,45,57,45Z"/><path class="cls-8" d="M1588,841V828.57l-6-.57s-2,0-2-7v-9.5s0-1.5,2-1.5,2,1.5,2,1.5v12.86h3V806s0-5,6-5,6,4,6,4v24.13l5-.13V811.5s1-2.5,3-2.5a3.7,3.7,0,0,1,3,2v21.68s-1,1.32-4,1.32h-7v7Z"/><path class="cls-4" d="M1623,857s11-32,48-32,46.79,32,46.79,32Z"/><path class="cls-9" d="M1756,843s11-31,39-31,43,31,43,31Z"/><path class="cls-4" d="M1746,859s4-17,28-17,24.93,17,24.93,17Z"/></g></g></svg>